<svg width="75" height="25" viewBox="0 0 75 25" fill="none" xmlns="http://www.w3.org/2000/svg">
<path d="M35.3884 4.224C35.5821 4.224 35.725 4.40487 35.6802 4.59335L32.6068 17.5293C32.5747 17.6646 32.4539 17.76 32.3149 17.76H26.7946C26.6531 17.76 26.5308 17.6611 26.5013 17.5227L25.205 11.4608C25.1378 11.1464 24.69 11.1437 24.619 11.4573L23.2449 17.5262C23.214 17.6629 23.0925 17.76 22.9523 17.76H17.4295C17.2903 17.76 17.1694 17.6643 17.1375 17.5289L14.087 4.59286C14.0426 4.40451 14.1855 4.224 14.379 4.224H19.0183C19.1682 4.224 19.2952 4.33471 19.3155 4.48327L20.1748 10.7545C20.2205 11.0876 20.6955 11.1051 20.7655 10.7762L22.1094 4.46155C22.1389 4.32303 22.2612 4.224 22.4029 4.224H27.6073C27.7479 4.224 27.8697 4.32171 27.9001 4.45901L29.3346 10.9232C29.407 11.2498 29.8788 11.2307 29.9246 10.8993L30.8122 4.48289C30.8327 4.33451 30.9596 4.224 31.1094 4.224H35.3884Z" fill="white"/>
<path d="M45.6637 4.128C47.2157 4.128 48.4237 4.648 49.2877 5.688C50.1677 6.728 50.6077 8.136 50.6077 9.912V17.46C50.6077 17.6257 50.4734 17.76 50.3077 17.76H45.6037C45.438 17.76 45.3037 17.6257 45.3037 17.46V10.584C45.3037 9.944 45.1277 9.44 44.7757 9.072C44.4397 8.688 43.9837 8.496 43.4077 8.496C42.8157 8.496 42.3517 8.688 42.0157 9.072C41.6797 9.44 41.5117 9.944 41.5117 10.584V17.46C41.5117 17.6257 41.3774 17.76 41.2117 17.76H36.4837C36.318 17.76 36.1837 17.6257 36.1837 17.46V4.524C36.1837 4.35831 36.318 4.224 36.4837 4.224H41.2117C41.3774 4.224 41.5117 4.35831 41.5117 4.524V5.27599C41.5117 5.57462 41.9367 5.71442 42.1487 5.50407C42.4465 5.20848 42.7862 4.94979 43.1677 4.728C43.8717 4.328 44.7037 4.128 45.6637 4.128Z" fill="white"/>
<path d="M57.226 0C57.3917 0 57.526 0.134315 57.526 0.3V17.46C57.526 17.6257 57.3917 17.76 57.226 17.76H52.498C52.3324 17.76 52.198 17.6257 52.198 17.46V0.299999C52.198 0.134314 52.3324 0 52.498 0H57.226Z" fill="white"/>
<path d="M74.0437 4.224C74.2595 4.224 74.4047 4.44509 74.319 4.64317L65.9147 24.0592C65.8672 24.1689 65.759 24.24 65.6394 24.24H60.4797C60.2592 24.24 60.114 24.01 60.2089 23.8109L63.3534 17.2119C63.3909 17.1332 63.3923 17.0421 63.3573 16.9623L57.9568 4.64446C57.8698 4.44623 58.0151 4.224 58.2315 4.224H63.4917C63.6172 4.224 63.7294 4.30209 63.773 4.41974L65.9535 10.303C66.0513 10.567 66.4262 10.5629 66.5183 10.2969L68.5505 4.42587C68.5924 4.30504 68.7062 4.224 68.834 4.224H74.0437Z" fill="white"/>
<rect y="4" width="14" height="14" rx="5" fill="white"/>
<path d="M11.6917 11C11.8604 11 11.9967 11.1392 11.9845 11.3075C11.9237 12.1434 11.7027 12.8935 11.3179 13.5576C10.8723 14.3352 10.2644 14.937 9.49365 15.3623C8.7229 15.7875 7.86756 15.9999 6.92822 16C6.00096 16 5.15763 15.7874 4.39893 15.3623C3.65222 14.937 3.06201 14.3352 2.62842 13.5576C2.27388 12.8934 2.07028 12.1431 2.01432 11.3069C2.00307 11.1388 2.13922 11 2.30769 11H3.38804C3.55062 11 3.6827 11.1297 3.69476 11.2918C3.74033 11.9042 3.87804 12.4345 4.10986 12.8828C4.41098 13.4418 4.80842 13.8611 5.30225 14.1406C5.79602 14.4079 6.33812 14.542 6.92822 14.542C7.51827 14.5419 8.07252 14.4025 8.59033 14.123C9.10813 13.8436 9.5233 13.424 9.83643 12.8652C10.0965 12.4181 10.2514 11.8931 10.3031 11.2905C10.3169 11.129 10.4486 11 10.6107 11H11.6917Z" fill="#0F172A"/>
</svg>
